<?xml version="1.0" encoding="UTF-8"?>
<svg xmlns="http://www.w3.org/2000/svg" version="1.1" viewBox="0 0 81.1 20.3">
  <defs>
    <style>
      .cls-1, .cls-2, .cls-3 {
        isolation: isolate;
      }

      .cls-2, .cls-3 {
        font-family: Cache-Regular, Cache;
        font-size: 14.5px;
      }

      .cls-3 {
        fill: #ee5057;
      }
    </style>
  </defs>
  <!-- Generator: Adobe Illustrator 28.7.1, SVG Export Plug-In . SVG Version: 1.2.0 Build 142)  -->
  <g>
    <g id="Layer_1">
      <g id="Layer_1-2" data-name="Layer_1">
        <g id="Layer_1-2">
          <g id="Layer_1-2-2" data-name="Layer_1-2">
            <path d="M59.3,15.5l-8.6-8.7,1.9-1.9c.3-.3.3-1,0-1.5-.3-.3-1-.3-1.5,0l-1.9,1.9-1.9-1.9c-.3-.3-1-.3-1.5,0-.3.3-.3,1,0,1.5l1.9,1.9-8.5,8.7c-.3.3-.3.6-.2,1.1,0,.3.5.6,1,.6h6.6v-1.1c0-.3,0-.6.2-1,.3-1,1.3-1.8,2.4-1.8s2.1.8,2.4,1.8c0,.3.2.6.2,1v1.1h6.8c.3,0,.8-.2,1-.6,0-.3,0-.8-.2-1.1h-.2.1Z"/>
            <g class="cls-1">
              <g class="cls-1">
                <g class="cls-1">
                  <text class="cls-3" transform="translate(3.7 16.4)"><tspan x="0" y="0">camping</tspan></text>
                </g>
              </g>
            </g>
            <g class="cls-1">
              <g class="cls-1">
                <g class="cls-1">
                  <text class="cls-2" transform="translate(60.4 16.3)"><tspan x="0" y="0">nest</tspan></text>
                </g>
              </g>
            </g>
          </g>
        </g>
      </g>
    </g>
  </g>
</svg>